<svg width="131" height="37" viewBox="0 0 131 37" fill="none" xmlns="http://www.w3.org/2000/svg">
<path d="M112.704 0H18.296C8.1914 0 0 8.1914 0 18.296V18.297C0 28.4016 8.1914 36.593 18.296 36.593H112.704C122.809 36.593 131 28.4016 131 18.297V18.296C131 8.1914 122.809 0 112.704 0Z" fill="#1A1A1A"/>
<path d="M112.704 0.5H18.296C8.46754 0.5 0.5 8.46754 0.5 18.296V18.297C0.5 28.1255 8.46754 36.093 18.296 36.093H112.704C122.532 36.093 130.5 28.1255 130.5 18.297V18.296C130.5 8.46754 122.532 0.5 112.704 0.5Z" stroke="#707070"/>
<path d="M45.7188 21.5078C45.3333 22.0599 44.7943 22.474 44.1016 22.75C43.4141 23.0208 42.612 23.1562 41.6953 23.1562C40.7682 23.1562 39.9453 22.9401 39.2266 22.5078C38.5078 22.0703 37.9505 21.4505 37.5547 20.6484C37.1641 19.8464 36.9635 18.9167 36.9531 17.8594V16.8672C36.9531 15.1536 37.3516 13.8255 38.1484 12.8828C38.9505 11.9401 40.0755 11.4688 41.5234 11.4688C42.7109 11.4688 43.6667 11.7734 44.3906 12.3828C45.1146 12.987 45.5573 13.8464 45.7188 14.9609H44.2188C43.9375 13.4557 43.0417 12.7031 41.5312 12.7031C40.526 12.7031 39.763 13.0573 39.2422 13.7656C38.7266 14.4688 38.4661 15.4896 38.4609 16.8281V17.7578C38.4609 19.0339 38.7526 20.0495 39.3359 20.8047C39.9193 21.5547 40.7083 21.9297 41.7031 21.9297C42.2656 21.9297 42.7578 21.8672 43.1797 21.7422C43.6016 21.6172 43.9505 21.4062 44.2266 21.1094V18.5547H41.5938V17.3359H45.7188V21.5078ZM51.5078 23.1562C50.362 23.1562 49.4297 22.7812 48.7109 22.0312C47.9922 21.276 47.6328 20.2682 47.6328 19.0078V18.7422C47.6328 17.9036 47.7917 17.1562 48.1094 16.5C48.4323 15.8385 48.8802 15.3229 49.4531 14.9531C50.0312 14.5781 50.6562 14.3906 51.3281 14.3906C52.4271 14.3906 53.2812 14.7526 53.8906 15.4766C54.5 16.2005 54.8047 17.237 54.8047 18.5859V19.1875H49.0781C49.099 20.0208 49.3411 20.6953 49.8047 21.2109C50.2734 21.7214 50.8672 21.9766 51.5859 21.9766C52.0964 21.9766 52.5286 21.8724 52.8828 21.6641C53.237 21.4557 53.5469 21.1797 53.8125 20.8359L54.6953 21.5234C53.987 22.612 52.9245 23.1562 51.5078 23.1562ZM51.3281 15.5781C50.7448 15.5781 50.2552 15.7917 49.8594 16.2188C49.4635 16.6406 49.2188 17.2344 49.125 18H53.3594V17.8906C53.3177 17.1562 53.1198 16.5885 52.7656 16.1875C52.4115 15.7812 51.9323 15.5781 51.3281 15.5781ZM58.4453 12.5V14.5469H60.0234V15.6641H58.4453V20.9062C58.4453 21.2448 58.5156 21.5 58.6562 21.6719C58.7969 21.8385 59.0365 21.9219 59.375 21.9219C59.5417 21.9219 59.7708 21.8906 60.0625 21.8281V23C59.6823 23.1042 59.3125 23.1562 58.9531 23.1562C58.3073 23.1562 57.8203 22.9609 57.4922 22.5703C57.1641 22.1797 57 21.625 57 20.9062V15.6641H55.4609V14.5469H57V12.5H58.4453ZM67.0547 14.5469L67.1016 15.6094C67.7474 14.7969 68.5911 14.3906 69.6328 14.3906C71.4193 14.3906 72.3203 15.3984 72.3359 17.4141V23H70.8906V17.4062C70.8854 16.7969 70.7448 16.3464 70.4688 16.0547C70.1979 15.763 69.7734 15.6172 69.1953 15.6172C68.7266 15.6172 68.3151 15.7422 67.9609 15.9922C67.6068 16.2422 67.3307 16.5703 67.1328 16.9766V23H65.6875V14.5469H67.0547ZM74.1328 18.6953C74.1328 17.8672 74.2943 17.1224 74.6172 16.4609C74.9453 15.7995 75.3984 15.2891 75.9766 14.9297C76.5599 14.5703 77.224 14.3906 77.9688 14.3906C79.1198 14.3906 80.0495 14.7891 80.7578 15.5859C81.4714 16.3828 81.8281 17.4427 81.8281 18.7656V18.8672C81.8281 19.6901 81.6693 20.4297 81.3516 21.0859C81.0391 21.737 80.5885 22.2448 80 22.6094C79.4167 22.974 78.7448 23.1562 77.9844 23.1562C76.8385 23.1562 75.9089 22.7578 75.1953 21.9609C74.487 21.1641 74.1328 20.1094 74.1328 18.7969V18.6953ZM75.5859 18.8672C75.5859 19.8047 75.8021 20.5573 76.2344 21.125C76.6719 21.6927 77.2552 21.9766 77.9844 21.9766C78.7188 21.9766 79.3021 21.6901 79.7344 21.1172C80.1667 20.5391 80.3828 19.7318 80.3828 18.6953C80.3828 17.7682 80.1615 17.0182 79.7188 16.4453C79.2812 15.8672 78.6979 15.5781 77.9688 15.5781C77.2552 15.5781 76.6797 15.862 76.2422 16.4297C75.8047 16.9974 75.5859 17.8099 75.5859 18.8672ZM91.125 21.0078L92.75 14.5469H94.1953L91.7344 23H90.5625L88.5078 16.5938L86.5078 23H85.3359L82.8828 14.5469H84.3203L85.9844 20.875L87.9531 14.5469H89.1172L91.125 21.0078Z" fill="white"/>
</svg>
