<svg width="131" height="37" viewBox="0 0 131 37" fill="none" xmlns="http://www.w3.org/2000/svg">
<path d="M112.704 0H18.296C8.1914 0 0 8.1914 0 18.296V18.297C0 28.4016 8.1914 36.593 18.296 36.593H112.704C122.809 36.593 131 28.4016 131 18.297V18.296C131 8.1914 122.809 0 112.704 0Z" fill="white"/>
<path d="M112.704 0.5H18.296C8.46754 0.5 0.5 8.46754 0.5 18.296V18.297C0.5 28.1255 8.46754 36.093 18.296 36.093H112.704C122.532 36.093 130.5 28.1255 130.5 18.297V18.296C130.5 8.46754 122.532 0.5 112.704 0.5Z" stroke="#707070"/>
<path d="M46.7188 21.5078C46.3333 22.0599 45.7943 22.474 45.1016 22.75C44.4141 23.0208 43.612 23.1562 42.6953 23.1562C41.7682 23.1562 40.9453 22.9401 40.2266 22.5078C39.5078 22.0703 38.9505 21.4505 38.5547 20.6484C38.1641 19.8464 37.9635 18.9167 37.9531 17.8594V16.8672C37.9531 15.1536 38.3516 13.8255 39.1484 12.8828C39.9505 11.9401 41.0755 11.4688 42.5234 11.4688C43.7109 11.4688 44.6667 11.7734 45.3906 12.3828C46.1146 12.987 46.5573 13.8464 46.7188 14.9609H45.2188C44.9375 13.4557 44.0417 12.7031 42.5312 12.7031C41.526 12.7031 40.763 13.0573 40.2422 13.7656C39.7266 14.4688 39.4661 15.4896 39.4609 16.8281V17.7578C39.4609 19.0339 39.7526 20.0495 40.3359 20.8047C40.9193 21.5547 41.7083 21.9297 42.7031 21.9297C43.2656 21.9297 43.7578 21.8672 44.1797 21.7422C44.6016 21.6172 44.9505 21.4062 45.2266 21.1094V18.5547H42.5938V17.3359H46.7188V21.5078ZM48.6172 18.6953C48.6172 17.8672 48.7786 17.1224 49.1016 16.4609C49.4297 15.7995 49.8828 15.2891 50.4609 14.9297C51.0443 14.5703 51.7083 14.3906 52.4531 14.3906C53.6042 14.3906 54.5339 14.7891 55.2422 15.5859C55.9557 16.3828 56.3125 17.4427 56.3125 18.7656V18.8672C56.3125 19.6901 56.1536 20.4297 55.8359 21.0859C55.5234 21.737 55.0729 22.2448 54.4844 22.6094C53.901 22.974 53.2292 23.1562 52.4688 23.1562C51.3229 23.1562 50.3932 22.7578 49.6797 21.9609C48.9714 21.1641 48.6172 20.1094 48.6172 18.7969V18.6953ZM50.0703 18.8672C50.0703 19.8047 50.2865 20.5573 50.7188 21.125C51.1562 21.6927 51.7396 21.9766 52.4688 21.9766C53.2031 21.9766 53.7865 21.6901 54.2188 21.1172C54.651 20.5391 54.8672 19.7318 54.8672 18.6953C54.8672 17.7682 54.6458 17.0182 54.2031 16.4453C53.7656 15.8672 53.1823 15.5781 52.4531 15.5781C51.7396 15.5781 51.1641 15.862 50.7266 16.4297C50.2891 16.9974 50.0703 17.8099 50.0703 18.8672ZM69.25 18.8672C69.25 20.1589 68.9531 21.1979 68.3594 21.9844C67.7656 22.7656 66.9688 23.1562 65.9688 23.1562C64.901 23.1562 64.0755 22.7786 63.4922 22.0234L63.4219 23H62.0938V11H63.5391V15.4766C64.1224 14.7526 64.9271 14.3906 65.9531 14.3906C66.9792 14.3906 67.7839 14.7786 68.3672 15.5547C68.9557 16.3307 69.25 17.3932 69.25 18.7422V18.8672ZM67.8047 18.7031C67.8047 17.7188 67.6146 16.9583 67.2344 16.4219C66.8542 15.8854 66.3073 15.6172 65.5938 15.6172C64.6406 15.6172 63.9557 16.0599 63.5391 16.9453V20.6016C63.9818 21.487 64.6719 21.9297 65.6094 21.9297C66.3021 21.9297 66.8411 21.6615 67.2266 21.125C67.612 20.5885 67.8047 19.7812 67.8047 18.7031ZM76.2969 23C76.2135 22.8333 76.1458 22.5365 76.0938 22.1094C75.4219 22.8073 74.6198 23.1562 73.6875 23.1562C72.8542 23.1562 72.1693 22.9219 71.6328 22.4531C71.1016 21.9792 70.8359 21.3802 70.8359 20.6562C70.8359 19.776 71.1693 19.0938 71.8359 18.6094C72.5078 18.1198 73.4505 17.875 74.6641 17.875H76.0703V17.2109C76.0703 16.7057 75.9193 16.3047 75.6172 16.0078C75.3151 15.7057 74.8698 15.5547 74.2812 15.5547C73.7656 15.5547 73.3333 15.6849 72.9844 15.9453C72.6354 16.2057 72.4609 16.5208 72.4609 16.8906H71.0078C71.0078 16.4688 71.1562 16.0625 71.4531 15.6719C71.7552 15.276 72.1615 14.9635 72.6719 14.7344C73.1875 14.5052 73.7526 14.3906 74.3672 14.3906C75.3411 14.3906 76.1042 14.6354 76.6562 15.125C77.2083 15.6094 77.4948 16.2786 77.5156 17.1328V21.0234C77.5156 21.7995 77.6146 22.4167 77.8125 22.875V23H76.2969ZM73.8984 21.8984C74.3516 21.8984 74.7812 21.7812 75.1875 21.5469C75.5938 21.3125 75.888 21.0078 76.0703 20.6328V18.8984H74.9375C73.1667 18.8984 72.2812 19.4167 72.2812 20.4531C72.2812 20.9062 72.4323 21.2604 72.7344 21.5156C73.0365 21.7708 73.4245 21.8984 73.8984 21.8984ZM83.1719 21.9766C83.6875 21.9766 84.138 21.8203 84.5234 21.5078C84.9089 21.1953 85.1224 20.8047 85.1641 20.3359H86.5312C86.5052 20.8203 86.3385 21.2812 86.0312 21.7188C85.724 22.1562 85.3125 22.5052 84.7969 22.7656C84.2865 23.026 83.7448 23.1562 83.1719 23.1562C82.0208 23.1562 81.1042 22.7734 80.4219 22.0078C79.7448 21.237 79.4062 20.1849 79.4062 18.8516V18.6094C79.4062 17.7865 79.5573 17.0547 79.8594 16.4141C80.1615 15.7734 80.5938 15.276 81.1562 14.9219C81.724 14.5677 82.3932 14.3906 83.1641 14.3906C84.112 14.3906 84.8984 14.6745 85.5234 15.2422C86.1536 15.8099 86.4896 16.5469 86.5312 17.4531H85.1641C85.1224 16.9062 84.9141 16.4583 84.5391 16.1094C84.1693 15.7552 83.7109 15.5781 83.1641 15.5781C82.4297 15.5781 81.8594 15.8438 81.4531 16.375C81.0521 16.901 80.8516 17.6641 80.8516 18.6641V18.9375C80.8516 19.9115 81.0521 20.6615 81.4531 21.1875C81.8542 21.7135 82.4271 21.9766 83.1719 21.9766ZM90.5156 19.0859L89.6094 20.0312V23H88.1641V11H89.6094V18.2578L90.3828 17.3281L93.0156 14.5469H94.7734L91.4844 18.0781L95.1562 23H93.4609L90.5156 19.0859Z" fill="#1A1A1A"/>
</svg>
